<?xml version="1.0" standalone="no"?>
<!DOCTYPE svg PUBLIC "-//W3C//DTD SVG 20010904//EN"
 "http://www.w3.org/TR/2001/REC-SVG-20010904/DTD/svg10.dtd">
<svg version="1.0" xmlns="http://www.w3.org/2000/svg"
 width="600.000000pt" height="257.000000pt" viewBox="0 0 600.000000 257.000000"
 preserveAspectRatio="xMidYMid meet">
<g transform="translate(0.000000,257.000000) scale(0.100000,-0.100000)"
fill="#000000" stroke="none">
<path d="M180 1650 c0 -858 2 -823 -61 -873 l-34 -27 678 0 c415 0 715 4 774
11 267 30 460 133 535 287 31 63 33 73 33 177 0 100 -3 115 -28 167 -67 136
-279 256 -457 258 -52 1 -39 13 25 25 111 19 232 112 278 213 18 39 22 65 22
157 0 100 -2 115 -28 167 -34 69 -90 121 -173 160 -117 55 -155 57 -891 58
l-673 0 0 -780z m1204 515 c109 -29 156 -87 156 -192 -1 -106 -43 -165 -143
-200 -47 -16 -91 -18 -437 -18 l-385 0 -3 213 -2 212 378 0 c306 0 389 -3 436
-15z m94 -659 c154 -39 222 -114 222 -241 0 -129 -70 -203 -227 -242 -57 -14
-134 -16 -483 -17 l-415 -1 -3 263 -2 264 422 -5 c347 -4 434 -7 486 -21z"/>
<path d="M2084 2193 c6 -199 4 -248 -8 -296 -20 -74 -48 -128 -92 -177 l-35
-38 60 -32 c60 -32 143 -108 182 -166 37 -55 60 -119 72 -196 29 -203 -58
-379 -244 -495 l-63 -38 194 -3 c107 -1 200 0 208 3 10 4 13 88 11 445 -1 243
1 443 3 446 3 2 105 -97 226 -221 122 -124 225 -225 229 -225 5 0 125 117 268
260 l260 260 5 -824 5 -825 197 147 198 146 0 1033 0 1033 -27 0 c-23 -1 -100
-72 -433 -401 l-405 -399 -220 223 c-121 123 -297 303 -391 400 -97 101 -178
177 -189 177 -17 0 -17 -13 -11 -237z"/>
<path d="M3924 1461 c0 -534 4 -970 8 -969 7 3 322 228 362 260 20 15 21 26
24 237 l3 221 232 0 c382 0 596 8 690 24 287 52 481 225 528 470 13 72 11 192
-6 264 -55 233 -227 381 -515 443 -38 8 -251 13 -691 16 l-636 4 1 -970z
m1134 703 c195 -39 296 -143 309 -318 12 -150 -54 -274 -180 -337 -103 -53
-157 -59 -529 -59 l-338 0 0 365 0 365 330 0 c259 0 348 -3 408 -16z"/>
</g>
</svg>
